<svg width="390" height="390" viewBox="0 0 390 390" fill="none" xmlns="http://www.w3.org/2000/svg">
<path d="M242.531 247.345C284.903 247.345 319.252 212.996 319.252 170.625C319.252 128.253 284.903 93.9043 242.531 93.9043C200.16 93.9043 165.811 128.253 165.811 170.625C165.811 212.996 200.16 247.345 242.531 247.345Z" fill="#FBF9E4"/>
<path d="M242.531 48.75V75.8062" stroke="#FBF9E4" stroke-width="3" stroke-miterlimit="10" stroke-linecap="round"/>
<path d="M242.531 265.443V292.5" stroke="#FBF9E4" stroke-width="3" stroke-miterlimit="10" stroke-linecap="round"/>
<path d="M120.656 170.625H147.773" stroke="#FBF9E4" stroke-width="3" stroke-miterlimit="10" stroke-linecap="round"/>
<path d="M337.35 170.625H364.406" stroke="#FBF9E4" stroke-width="3" stroke-miterlimit="10" stroke-linecap="round"/>
<path d="M156.366 84.459L175.5 103.593" stroke="#FBF9E4" stroke-width="3" stroke-miterlimit="10" stroke-linecap="round"/>
<path d="M309.562 237.656L328.697 256.791" stroke="#FBF9E4" stroke-width="3" stroke-miterlimit="10" stroke-linecap="round"/>
<path d="M156.366 256.791L175.5 237.656" stroke="#FBF9E4" stroke-width="3" stroke-miterlimit="10" stroke-linecap="round"/>
<path d="M309.562 103.593L328.697 84.459" stroke="#FBF9E4" stroke-width="3" stroke-miterlimit="10" stroke-linecap="round"/>
<path d="M143.203 133.453C162.628 133.414 181.694 138.684 198.341 148.694C214.988 158.703 228.583 173.072 237.656 190.247C248.772 183.748 261.237 179.898 274.082 178.996C286.927 178.095 299.807 180.166 311.722 185.05C323.637 189.933 334.266 197.496 342.784 207.153C351.302 216.81 357.48 228.3 360.838 240.731C364.196 253.163 364.643 266.201 362.145 278.833C359.647 291.465 354.272 303.352 346.436 313.57C338.6 323.787 328.514 332.062 316.962 337.75C305.41 343.439 292.702 346.388 279.825 346.369L143.203 346.735C114.92 346.735 87.7958 335.499 67.7968 315.5C47.7978 295.501 36.5625 268.377 36.5625 240.094C36.5625 211.811 47.7978 184.687 67.7968 164.688C87.7958 144.689 114.92 133.453 143.203 133.453Z" fill="#E7E8EA"/>
</svg>
