<svg width="285" height="237" viewBox="0 0 285 237" fill="none" xmlns="http://www.w3.org/2000/svg">
<path d="M87.75 4.30229e-06C103.663 -0.00498633 119.275 4.33194 132.905 12.5435C146.535 20.7551 157.667 32.5302 165.1 46.6C174.23 41.2621 184.469 38.1026 195.019 37.3673C205.569 36.6319 216.147 38.3405 225.929 42.3602C235.712 46.3799 244.435 52.6022 251.42 60.5432C258.405 68.4841 263.464 77.9296 266.203 88.1446C268.942 98.3597 269.288 109.069 267.213 119.439C265.138 129.81 260.698 139.562 254.24 147.937C247.781 156.311 239.477 163.083 229.974 167.725C220.471 172.367 210.026 174.754 199.45 174.7L87.5 175C64.2936 175 42.0376 165.781 25.6282 149.372C9.21873 132.962 0 110.706 0 87.5C0 64.2936 9.21873 42.0376 25.6282 25.6282C42.0376 9.21873 64.2936 4.64809e-06 87.5 4.30229e-06H87.75Z" fill="#E7E8EA"/>
<path d="M265.938 124.472C276.155 87.9028 254.793 49.9751 218.224 39.7579C181.654 29.5408 143.727 50.9032 133.51 87.4723C123.292 124.041 144.655 161.969 181.224 172.186C217.793 182.403 255.721 161.041 265.938 124.472Z" fill="#E7E8EA"/>
<path d="M130.1 86V136.65" stroke="#9C9FA0" stroke-width="2" stroke-miterlimit="10" stroke-linecap="round"/>
<path d="M135.95 79.4502L130.1 86.8002L124.2 79.4502" stroke="#9C9FA0" stroke-width="2" stroke-miterlimit="10" stroke-linecap="round"/>
<path d="M124.2 143.25L130.1 135.9L135.95 143.25" stroke="#9C9FA0" stroke-width="2" stroke-miterlimit="10" stroke-linecap="round"/>
<path d="M152 98.6504L108.15 124" stroke="#9C9FA0" stroke-width="2" stroke-miterlimit="10" stroke-linecap="round"/>
<path d="M160.65 100.5L151.35 99.0498L154.75 90.2998" stroke="#9C9FA0" stroke-width="2" stroke-miterlimit="10" stroke-linecap="round"/>
<path d="M99.5 122.2L108.8 123.6L105.4 132.4" stroke="#9C9FA0" stroke-width="2" stroke-miterlimit="10" stroke-linecap="round"/>
<path d="M152 124L108.15 98.6504" stroke="#9C9FA0" stroke-width="2" stroke-miterlimit="10" stroke-linecap="round"/>
<path d="M154.75 132.4L151.35 123.6L160.65 122.2" stroke="#9C9FA0" stroke-width="2" stroke-miterlimit="10" stroke-linecap="round"/>
<path d="M105.4 90.2998L108.8 99.0498L99.5 100.5" stroke="#9C9FA0" stroke-width="2" stroke-miterlimit="10" stroke-linecap="round"/>
<path d="M101.95 223.65C107.473 223.65 111.95 219.173 111.95 213.65C111.95 208.128 107.473 203.65 101.95 203.65C96.4271 203.65 91.95 208.128 91.95 213.65C91.95 219.173 96.4271 223.65 101.95 223.65Z" fill="#C4C4C4"/>
<path d="M151.95 236.15C156.092 236.15 159.45 232.793 159.45 228.65C159.45 224.508 156.092 221.15 151.95 221.15C147.808 221.15 144.45 224.508 144.45 228.65C144.45 232.793 147.808 236.15 151.95 236.15Z" fill="#E0E0E0"/>
<path d="M61.95 201.15C66.0921 201.15 69.45 197.793 69.45 193.65C69.45 189.508 66.0921 186.15 61.95 186.15C57.8078 186.15 54.45 189.508 54.45 193.65C54.45 197.793 57.8078 201.15 61.95 201.15Z" fill="#E0E0E0"/>
<path d="M131.95 198.65C134.711 198.65 136.95 196.412 136.95 193.65C136.95 190.889 134.711 188.65 131.95 188.65C129.189 188.65 126.95 190.889 126.95 193.65C126.95 196.412 129.189 198.65 131.95 198.65Z" fill="white"/>
<path d="M201.95 233.65C204.711 233.65 206.95 231.412 206.95 228.65C206.95 225.889 204.711 223.65 201.95 223.65C199.189 223.65 196.95 225.889 196.95 228.65C196.95 231.412 199.189 233.65 201.95 233.65Z" fill="white"/>
<path d="M56.95 233.65C59.7114 233.65 61.95 231.412 61.95 228.65C61.95 225.889 59.7114 223.65 56.95 223.65C54.1885 223.65 51.95 225.889 51.95 228.65C51.95 231.412 54.1885 233.65 56.95 233.65Z" fill="white"/>
<path d="M181.95 208.65C187.473 208.65 191.95 204.173 191.95 198.65C191.95 193.128 187.473 188.65 181.95 188.65C176.427 188.65 171.95 193.128 171.95 198.65C171.95 204.173 176.427 208.65 181.95 208.65Z" fill="#C4C4C4"/>
</svg>
